<svg width="15" height="15" viewBox="0 0 15 15" fill="none" xmlns="http://www.w3.org/2000/svg">
<path d="M8.82658 7.50016L14.7251 1.60135C15.0916 1.23517 15.0916 0.641039 14.7251 0.274865C14.3587 -0.0916217 13.7652 -0.0916217 13.3987 0.274865L7.50016 6.17367L1.60128 0.274865C1.23481 -0.0916217 0.641325 -0.0916217 0.274854 0.274865C-0.0916178 0.641039 -0.0916178 1.23517 0.274854 1.60135L6.17373 7.50016L0.274854 13.399C-0.0916178 13.7651 -0.0916178 14.3593 0.274854 14.7254C0.458089 14.9084 0.698234 15 0.938067 15C1.1779 15 1.41804 14.9084 1.60128 14.7251L7.50016 8.82632L13.3987 14.7251C13.582 14.9084 13.8221 15 14.0619 15C14.3018 15 14.5419 14.9084 14.7251 14.7251C15.0916 14.359 15.0916 13.7648 14.7251 13.3987L8.82658 7.50016Z" fill="#414555"/>
</svg>
